<svg xmlns="http://www.w3.org/2000/svg" viewBox="0 0 57.93 20.42"><defs><style>.cls-1{fill:#fff;}</style></defs><title>Asset 7Eden</title><g id="Layer_2" data-name="Layer 2"><g id="Layer_1-2" data-name="Layer 1"><path class="cls-1" d="M11,18.64c-.11-1.2-.13-2.4-.13-3.45V12.24H6.39v2.95a16.16,16.16,0,0,1-.78,4.87H17.32l-.11-5.48A6.72,6.72,0,0,1,11,18.64Z"/><path class="cls-1" d="M6.39,6.81v3.42H3.56A2.23,2.23,0,0,0,2,8.09h-.3C.72,8.2,0,9.34,0,10.73a3.46,3.46,0,0,0,.46,1.76l.06.09,0,.06.08.11,0,0,.11.12v0l.3.24h0l.15.08h0l.14.05h0l.15,0H2l.15,0h0l.14-.05h0l.15-.08h0a1.76,1.76,0,0,0,.3-.24l0,0,.11-.12,0,0A.76.76,0,0,0,3,12.64l.05-.06a.41.41,0,0,0,0-.09,3.36,3.36,0,0,0,.43-1.25h9.38v2.1a.3.3,0,0,1-.11.14h-.09l0,.15H14V12.38a.38.38,0,0,0-.11-.14l-.1,0,0-.15H15l0,.15-.09,0a.3.3,0,0,0-.11.14v1.26H16l0-.15h-.09a.32.32,0,0,1-.12-.14V12.07h0V10.78h0v-.55H10.9V6.81c0-1.08,0-2.25.11-3.44a7.57,7.57,0,0,1,6.26,4.11L17.35,2H5.61A14.56,14.56,0,0,1,6.39,6.81ZM1.8,12.35a.9.9,0,0,1-.54-1.62.9.9,0,0,1,.53-1.62A.9.9,0,0,1,2.7,10a.92.92,0,0,1-.37.73.89.89,0,0,1,.37.72A.9.9,0,0,1,1.8,12.35Z"/><path class="cls-1" d="M30.84,0a26.53,26.53,0,0,1-5.06,1.89,6.47,6.47,0,0,1,.61,3.28v.89a3.5,3.5,0,0,0-1.48-.27c-2.47,0-6.06,2-6.06,8.12,0,4.34,2.17,6.34,4.42,6.34A3.79,3.79,0,0,0,26.5,18.5a3,3,0,0,0,.58,1.56h4.37a9.19,9.19,0,0,1-.61-3.82ZM26.39,17.41a1.87,1.87,0,0,1-.59.09c-1.75,0-2.44-1.56-2.44-5.34s.5-4.87,1.55-4.87,1.45,1.25,1.48,3.45Z"/><path class="cls-1" d="M57.18,15.19V9.65c0-2.47-1-3.92-3-3.92a4,4,0,0,0-3.75,2.64,7.78,7.78,0,0,0-.72-2.72c-1.42.66-2.92,1.28-4.37,1.89a5.21,5.21,0,0,1,.64,3V16.3a8,8,0,0,1-.64,3.76h5.73a7.65,7.65,0,0,1-.64-3.76V9.15a1.59,1.59,0,0,1,1.2-.64c.69,0,1.08.31,1.08,1.67v5.09a22.24,22.24,0,0,0,.36,4.79h4.84A13.77,13.77,0,0,1,57.18,15.19Z"/><path class="cls-1" d="M39,5.7c-4.09,0-6.34,3.23-6.34,7.46s2.53,7.26,6.11,7.26a5.19,5.19,0,0,0,5.26-4.26,7.26,7.26,0,0,1-2.81.53c-2.83,0-3.84-1.31-4.14-3.48h7V11.13C44.08,8.15,42.49,5.7,39,5.7Zm-.36,6.51H37c0-.33,0-.69,0-1.08,0-2.9.58-3.84,1.3-3.84s1.26,1,1.26,4C39.55,12.18,39.43,12.21,38.66,12.21Z"/></g></g></svg>