<svg xmlns="http://www.w3.org/2000/svg" viewBox="0 0 32.38 41.2"><defs><style>.cls-1{fill:#fff;}</style></defs><title>Asset 10Eden</title><g id="Layer_2" data-name="Layer 2"><g id="Layer_1-2" data-name="Layer 1"><path class="cls-1" d="M16.28,27.17l-5.12,5.11c-.81-.25-.69-.8-.7-1.27,0-2.32,0-4.64,0-7v-1.5L.57,32.43a3.37,3.37,0,0,1-.51-.8,3.07,3.07,0,0,1,0-.86q0-9.45,0-18.89c0-.5-.2-1.1.57-1.5,1.7,1.43,3.21,3.12,4.82,4.7s3.2,3.23,5,5c0-.57.07-.92.07-1.26q0-8.7,0-17.4c0-.51-.16-1.09.39-1.42H11l.11,0a2,2,0,0,1,.4.29L31.94,20.71c.11.12.21.25.31.38a3,3,0,0,1,.13.43l-10.8,10.8c-.85-.32-1.26-1-1.82-1.54S18.57,29.62,18,29,16.93,27.87,16.28,27.17ZM11.54,10.4l4.68,4.68,4.28-4.29a118,118,0,0,0-9-8.84Zm4.76,6.79-4.16,4.17,4.1,4.11,4.17-4.17Zm-11.53-1L1.15,12.56v7.36Zm6.79,3.35,3.58-3.37-3.58-3.59Zm9.29-6.92-3.5,3.48,3.5,3.52Zm4.83,3.55-3.63-3.66v7.4ZM1.5,21.28,5.15,25V17.53Zm4.76-3.67c0,2.51,0,5,0,7.41l3.81-3.69Zm16.18,3.56,3.66,3.77V21.31c0-1.24,0-2.48,0-3.76Zm8.41.2L27.2,17.73v7.21ZM1.1,30.09l3.57-3.54L1.1,23Zm14.34-3.81c-.6-.54-1.25-1.11-1.89-1.7s-1.21-1.27-2-1.92v7.49Zm5.39,3.89V22.9l-3.67,3.62ZM22,30.11l3.59-3.56L22,22.78Z"/><path class="cls-1" d="M22,35.62c-1.92,1.91-3.77,3.82-5.66,5.58a.77.77,0,0,1-.67-.9c0-3.18,0-6.35,0-9.53,0-.38,0-.75.46-.91A41.21,41.21,0,0,1,22,35.62Zm-5.24,3.62a20.69,20.69,0,0,0,3.68-3.59L16.76,32Z"/></g></g></svg>