<svg xmlns="http://www.w3.org/2000/svg" viewBox="0 0 101.62 20.78"><defs><style>.cls-1{fill:#fff;}</style></defs><title>Asset 8Eden</title><g id="Layer_2" data-name="Layer 2"><g id="Layer_1-2" data-name="Layer 1"><path class="cls-1" d="M28.26,7.22c0,.43,0,.48.45.48H30c.85,0,1-.11,1.18-.9l.08-.38a.5.5,0,0,1,.62,0c0,.52,0,1.11,0,1.72s0,1.19,0,1.67a.5.5,0,0,1-.62,0l-.08-.39c-.16-.77-.33-.9-1.18-.9H28.71c-.43,0-.45,0-.45.48V11.2c0,1.5.1,1.62.82,1.72l.59.08a.48.48,0,0,1,0,.56c-1,0-1.78,0-2.55,0s-1.54,0-2.51,0a.48.48,0,0,1,0-.56l.53-.08c.73-.11.82-.22.82-1.72v-6c0-1.5-.09-1.64-.82-1.75l-.32,0c-.14-.1-.14-.5,0-.56.69,0,1.49,0,2.26,0h3.37c1,0,1.95,0,2.17,0,0,.27,0,1.43,0,2.5-.06.18-.42.2-.61.07a3.93,3.93,0,0,0-.46-1.26A1.94,1.94,0,0,0,30,3.65H28.79c-.53,0-.53,0-.53.66ZM45,8.17c0,3.5-2.34,5.6-5.8,5.6A5.24,5.24,0,0,1,33.61,8.3a5.54,5.54,0,0,1,5.74-5.64A5.31,5.31,0,0,1,45,8.17ZM39.22,3.4c-2,0-3,1.84-3,4.53,0,2,.69,5.1,3.31,5.1,2.1,0,2.92-2,2.92-4.65C42.41,5.63,41.21,3.4,39.22,3.4Zm8.06,2.12c0-1.61,0-1.79-.7-1.88l-.44-.07a.37.37,0,0,1,0-.56c1.21-.08,2.46-.14,4-.14a6.73,6.73,0,0,1,3.14.58A2.62,2.62,0,0,1,53,8.23c-.17.08-.17.18-.08.35,1.06,2.16,1.71,3.36,2.48,4a2,2,0,0,0,1.08.45.29.29,0,0,1,.06.42,3.9,3.9,0,0,1-1.26.14,3.29,3.29,0,0,1-3.12-1.68,21.46,21.46,0,0,1-1.25-2.49.82.82,0,0,0-.85-.57c-.57,0-.6,0-.6.36v2c0,1.48.1,1.59.82,1.72l.43.08a.48.48,0,0,1,0,.56c-.85,0-1.58,0-2.36,0s-1.51,0-2.34,0A.45.45,0,0,1,46,13l.43-.08c.73-.13.82-.24.82-1.72Zm2.2,2c0,.56.05.61,1,.61a1.56,1.56,0,0,0,1.22-.45A2.37,2.37,0,0,0,52.28,6a2.12,2.12,0,0,0-2.11-2.37c-.66,0-.69,0-.69.82ZM60.21,4.12c0-.39,0-.47-.38-.47h-1c-1.17,0-1.51.65-2,1.82a.44.44,0,0,1-.59-.15,21.73,21.73,0,0,0,.53-2.73A.42.42,0,0,1,57,2.51a.39.39,0,0,1,.23.07c.08.27.12.34,1.35.34h6c1.06,0,1.3,0,1.44-.36a.46.46,0,0,1,.21-.05.33.33,0,0,1,.24.12,11.45,11.45,0,0,0-.24,2.76c-.08.14-.51.18-.59.05-.27-1-.5-1.79-1.7-1.79h-1c-.38,0-.43.05-.43.47V11.2c0,1.5.1,1.62.82,1.72L64,13a.52.52,0,0,1,0,.56c-1,0-1.85,0-2.57,0s-1.6,0-2.73,0a.45.45,0,0,1,0-.56l.72-.08c.73-.08.82-.22.82-1.72Zm8.57,1.11c0-1.5-.1-1.59-.82-1.74l-.4-.08a.37.37,0,0,1,0-.54c.77,0,1.57,0,2.34,0s1.58,0,2.35,0a.42.42,0,0,1,0,.54l-.39.07c-.72.13-.82.25-.82,1.75V8.94c0,1.88.21,4,2.65,4,2.06,0,2.68-1.8,2.68-4V7A11.05,11.05,0,0,0,76.16,4c-.14-.34-.49-.44-.93-.52l-.43-.08a.47.47,0,0,1,0-.54c.87,0,1.49,0,2.15,0s1.19,0,1.8,0a.47.47,0,0,1,0,.54l-.29.07c-.42.09-.72.19-.87.53A11.5,11.5,0,0,0,77.35,7v1.8a5.54,5.54,0,0,1-1,3.87,4.34,4.34,0,0,1-3.18,1.15,4.82,4.82,0,0,1-3.18-.9c-.83-.69-1.18-1.88-1.18-3.63Zm21.28,5.56c0,1,0,2.05,0,2.58a1.27,1.27,0,0,1-1,.37s-.54-.82-1.3-1.75L84.13,7.4a23.28,23.28,0,0,0-1.75-2.06,2.84,2.84,0,0,0-.08,1V9.48a11.5,11.5,0,0,0,.24,2.94c.15.34.52.45.93.52l.45.06a.5.5,0,0,1,0,.56c-.86,0-1.51,0-2.15,0s-1.19,0-1.8,0A.52.52,0,0,1,80,13l.28-.05c.43-.08.75-.19.88-.53a11.3,11.3,0,0,0,.22-2.94V5.41A3.61,3.61,0,0,0,81.24,4c-.13-.27-.35-.47-.91-.55l-.45-.06c-.12-.13-.1-.51.06-.56.76,0,1.56,0,2.22,0s1,0,1.35,0c.16.72,1.2,1.94,2.65,3.66L87.5,8.12c.71.83,1.18,1.4,1.55,1.77a2.55,2.55,0,0,0,.06-.73V7A11.1,11.1,0,0,0,88.87,4c-.15-.34-.5-.45-.93-.52l-.44-.06a.54.54,0,0,1,0-.56c.87,0,1.5,0,2.16,0s1.17,0,1.8,0a.54.54,0,0,1,0,.56l-.29,0A1,1,0,0,0,90.3,4,11.1,11.1,0,0,0,90.06,7Zm6.19-3.7c0,.45,0,.48.45.48h1.11c.83,0,1-.11,1.19-.88l.08-.4c.11-.13.51-.13.59,0,0,.52,0,1.1,0,1.71s0,1.19,0,1.7a.45.45,0,0,1-.59,0L99,9.32c-.16-.77-.36-.9-1.19-.9H96.7c-.43,0-.45,0-.45.5v1.91a2.94,2.94,0,0,0,.26,1.53c.21.29.51.42,1.69.42,1.39,0,1.94,0,2.82-1.87a.4.4,0,0,1,.6.08,9,9,0,0,1-.68,2.57c-.85,0-2.39,0-3.71,0H95.14c-.77,0-1.55,0-2.76,0a.45.45,0,0,1,0-.56l.76-.11c.72-.11.82-.21.82-1.69v-6c0-1.46-.1-1.56-.82-1.7l-.41-.08a.41.41,0,0,1,0-.56c.75,0,1.54,0,2.31,0h3.4c1,0,2,0,2.16,0,0,.25.12,1.41.2,2.49-.06.17-.43.21-.59.06a3.84,3.84,0,0,0-.61-1.27,2.12,2.12,0,0,0-1.57-.5H96.78c-.53,0-.53,0-.53.63Z"/><path class="cls-1" d="M13.71,3.6,0,8.29V6.85L13.71,0Zm0,1.35L0,9.2v1.73L13.71,8.58Zm0,4.94L0,11.77v1.79H13.71Z"/><path class="cls-1" d="M21.76,10.66l-7.35-.77v3.67h7.35Z"/><polygon class="cls-1" points="21.76 5.56 14.41 3.58 14.41 0 21.76 2.96 21.76 5.56"/><polygon class="cls-1" points="21.76 6.87 14.41 4.95 14.41 8.58 21.76 9.54 21.76 6.87"/><path class="cls-1" d="M27.23,19.16l.08.2.09-.21.09-.2,1.26-2.36.05-.08s0,0,.06,0l.07,0h.69v4.27h-.7V18a1,1,0,0,1,0-.17,1.09,1.09,0,0,1,0-.18L27.65,20a.3.3,0,0,1-.28.18h-.12A.3.3,0,0,1,27,20l-1.3-2.43c0,.06,0,.13,0,.19s0,.12,0,.17v2.76H25V16.46h.69l.07,0a.09.09,0,0,1,.05,0,.22.22,0,0,1,.05.08L27.13,19A1.24,1.24,0,0,1,27.23,19.16Z"/><path class="cls-1" d="M36.59,20.73H36a.23.23,0,0,1-.17-.05.45.45,0,0,1-.1-.13l-.32-.87H33.61l-.32.87a.22.22,0,0,1-.09.13.29.29,0,0,1-.17.05h-.62l1.69-4.27h.81Zm-2.77-1.61h1.36l-.52-1.42c0-.07,0-.14-.08-.23s0-.17-.08-.28c0,.11-.06.2-.08.29l-.08.22Z"/><path class="cls-1" d="M40.17,19.06v1.67h-.79V16.46h1.3a2.75,2.75,0,0,1,.75.09,1.35,1.35,0,0,1,.51.25,1,1,0,0,1,.29.39,1.18,1.18,0,0,1,.1.5,1.4,1.4,0,0,1-.06.41,1.7,1.7,0,0,1-.19.35,1.5,1.5,0,0,1-.29.27,1.64,1.64,0,0,1-.4.19,1,1,0,0,1,.26.24l1.07,1.58H42a.31.31,0,0,1-.3-.16l-.9-1.36a.23.23,0,0,0-.11-.11.3.3,0,0,0-.18,0Zm0-.57h.5a1.48,1.48,0,0,0,.39,0,.85.85,0,0,0,.28-.16.73.73,0,0,0,.16-.23.94.94,0,0,0,0-.3.6.6,0,0,0-.21-.5,1,1,0,0,0-.66-.18h-.51Z"/><path class="cls-1" d="M46.31,18.25h.19a.54.54,0,0,0,.19,0,.23.23,0,0,0,.12-.1L48,16.63a.32.32,0,0,1,.16-.13.4.4,0,0,1,.2,0H49L47.6,18.24a.92.92,0,0,1-.26.23.56.56,0,0,1,.17.09,1.29,1.29,0,0,1,.15.17l1.49,2h-.7a.43.43,0,0,1-.22,0,.29.29,0,0,1-.11-.11L46.91,19a.27.27,0,0,0-.13-.11.41.41,0,0,0-.21,0h-.26v1.88h-.79V16.46h.79Z"/><path class="cls-1" d="M54.62,16.46v.63H52.73v1.19h1.49v.61H52.73V20.1h1.89v.63H51.93V16.46Z"/><path class="cls-1" d="M60.72,16.46v.65H59.44v3.62h-.8V17.11H57.35v-.65Z"/><path class="cls-1" d="M64.37,20.73h-.8V16.46h.8Z"/><path class="cls-1" d="M68.17,16.46l.06,0,.06,0,.06.07,2.24,2.86a1.48,1.48,0,0,1,0-.21,1.15,1.15,0,0,1,0-.18v-2.6h.7v4.27h-.41a.41.41,0,0,1-.16,0,.35.35,0,0,1-.12-.1l-2.23-2.85c0,.06,0,.13,0,.19a1,1,0,0,1,0,.17v2.62h-.7V16.46h.5Z"/><path class="cls-1" d="M77.41,20.67a2.9,2.9,0,0,1-.79.11,2.59,2.59,0,0,1-1-.16,2.2,2.2,0,0,1-.72-.45,2.1,2.1,0,0,1-.47-.7,2.25,2.25,0,0,1-.16-.87,2.31,2.31,0,0,1,.16-.89,1.9,1.9,0,0,1,.44-.69,2.11,2.11,0,0,1,.7-.45,2.43,2.43,0,0,1,.92-.16,2.49,2.49,0,0,1,.49,0,2.58,2.58,0,0,1,.42.12,1.27,1.27,0,0,1,.35.17,2.37,2.37,0,0,1,.3.23l-.23.36a.25.25,0,0,1-.14.11.29.29,0,0,1-.19-.05l-.19-.11-.22-.1-.27-.07-.34,0a1.57,1.57,0,0,0-.58.1,1.35,1.35,0,0,0-.43.31,1.41,1.41,0,0,0-.28.48,2,2,0,0,0-.1.62,1.88,1.88,0,0,0,.11.65,1.48,1.48,0,0,0,.29.49A1.31,1.31,0,0,0,76,20a1.64,1.64,0,0,0,.6.11,1.88,1.88,0,0,0,.43,0,1.78,1.78,0,0,0,.36-.14v-.77h-.54a.17.17,0,0,1-.12-.05.12.12,0,0,1,0-.1v-.45H78.1v1.73A2.25,2.25,0,0,1,77.41,20.67Z"/><path class="cls-1" d="M87.46,20.73h-.79V16.46h.79Z"/><path class="cls-1" d="M91.26,16.46l.07,0,0,0,.06.07,2.24,2.86c0-.07,0-.14,0-.21a1.15,1.15,0,0,1,0-.18v-2.6h.7v4.27H94a.33.33,0,0,1-.15,0,.31.31,0,0,1-.13-.1l-2.23-2.85a1.21,1.21,0,0,1,0,.19,1,1,0,0,1,0,.17v2.62h-.7V16.46h.5Z"/><path class="cls-1" d="M100.61,19.73a.16.16,0,0,1,.12.05l.31.34a1.72,1.72,0,0,1-.64.49,2.27,2.27,0,0,1-.91.17,2.13,2.13,0,0,1-.86-.16,2,2,0,0,1-.65-.45,2.12,2.12,0,0,1-.41-.7,2.44,2.44,0,0,1-.14-.87,2.52,2.52,0,0,1,.15-.89A2.23,2.23,0,0,1,98,17a2.08,2.08,0,0,1,.67-.45,2.38,2.38,0,0,1,1.69,0A2,2,0,0,1,101,17l-.26.37-.06.06a.18.18,0,0,1-.11,0,.15.15,0,0,1-.09,0l-.1-.06-.13-.08-.17-.08-.23-.07-.3,0a1.27,1.27,0,0,0-.52.1,1.12,1.12,0,0,0-.41.3,1.42,1.42,0,0,0-.27.47,2.11,2.11,0,0,0-.09.64,1.83,1.83,0,0,0,.1.64,1.47,1.47,0,0,0,.28.47A1,1,0,0,0,99,20a1.26,1.26,0,0,0,.51.11l.29,0a.84.84,0,0,0,.24-.06.68.68,0,0,0,.21-.1,1,1,0,0,0,.2-.15l.06,0Z"/></g></g></svg>