<svg xmlns="http://www.w3.org/2000/svg" viewBox="0 0 71.44 18.44"><defs><style>.cls-1{fill:#fff;}</style></defs><title>Asset 9Eden</title><g id="Layer_2" data-name="Layer 2"><g id="Layer_1-2" data-name="Layer 1"><path class="cls-1" d="M47.53,11.35a23.82,23.82,0,0,1,0,2.8,4,4,0,0,1-3.56,3.93,16.4,16.4,0,0,1-6.62,0c-2.38-.49-3.44-1.69-3.64-4.14a35.82,35.82,0,0,1,0-5.18c.21-2.88,1.68-4,3.85-4.39A15.62,15.62,0,0,1,44,4.47c2.32.56,3.41,2,3.54,4.49C47.56,9.76,47.53,10.55,47.53,11.35Zm-9.74-.06h0c0,1,0,2,0,3A1.33,1.33,0,0,0,39,15.65a8.34,8.34,0,0,0,3.11,0,1.29,1.29,0,0,0,1.22-1.36c0-2,0-4,0-6a1.36,1.36,0,0,0-1.21-1.39,7.48,7.48,0,0,0-2.79-.06c-1.1.17-1.48.61-1.53,1.74C37.76,9.45,37.79,10.37,37.79,11.29Zm33.63-.06c0,.83,0,1.67,0,2.49a3.74,3.74,0,0,1-2.77,4,12.09,12.09,0,0,1-6.58.42c-2.59-.57-3.7-2.19-3.45-4.86a8,8,0,0,1,.1-.84,2.94,2.94,0,0,1,3.1-2.73c1.64-.13,3.28-.06,4.92-.06.43,0,.53-.12.53-.54,0-1.51-.63-2.18-2.18-2.38a16,16,0,0,0-4.53.15c-.28,0-.38,0-.38-.28,0-.65,0-1.31,0-2,0-.24.07-.33.32-.36a19.06,19.06,0,0,1,7.67.24c2.31.65,3.24,1.93,3.24,4.31ZM65.66,12a15.9,15.9,0,0,0-2,.09.92.92,0,0,0-.91.86,8.36,8.36,0,0,0,0,2,.86.86,0,0,0,.78.8,11.74,11.74,0,0,0,2.37.06c1.1,0,1.37-.37,1.38-1.48,0-.21,0-.42,0-.64,0-.54.23-1.26-.08-1.58S66.11,12,65.66,12ZM5.48,11.31l-1,1.37-4,5.42c-.07.08-.12.17-.19.25a.15.15,0,0,1-.23,0C0,18.3,0,18.24,0,18.17l.18-.26Q6.69,9.16,13.14.4c.12-.15.2-.54.46-.35s-.1.36-.21.51c-.76,1.06-1.54,2.1-2.32,3.15-.1.14-.19.29-.33.5a13.8,13.8,0,0,1,3.81.11,5.75,5.75,0,0,1,.72.15,3.85,3.85,0,0,1,3.23,4c.05,1.18,0,2.37,0,3.55,0,.42-.23.35-.47.35-2.61,0-5.23,0-7.84,0-.45,0-.55.12-.55.55,0,2.06.38,2.52,2.42,2.78a15.75,15.75,0,0,0,5.51-.41c.45-.1.55,0,.53.44,0,.59,0,1.2,0,1.8,0,.18,0,.33-.26.37a20.57,20.57,0,0,1-9.17,0,3.86,3.86,0,0,1-3.16-3.3,10.55,10.55,0,0,1,0-1.38C5.48,12.62,5.48,12,5.48,11.31ZM12.14,10c.67,0,1.34,0,2,0,.36,0,.46-.11.44-.45s0-.95,0-1.43a1.18,1.18,0,0,0-1-1.28,6.25,6.25,0,0,0-3,0,1.1,1.1,0,0,0-.89,1.16c0,.53,0,1.06,0,1.59,0,.29.09.4.39.39C10.76,10,11.45,10,12.14,10Zm8.2,4a4,4,0,0,0,3.42,4.13,21.19,21.19,0,0,0,6.79,0c.49-.07,1.12,0,1.41-.32s.07-.95.09-1.44.12-1-.08-1.11-.75.07-1.15.13a12.83,12.83,0,0,1-4.41.26,2,2,0,0,1-1.86-2.23V8.73A1.73,1.73,0,0,1,26,6.86a6,6,0,0,1,1.79-.13,20.52,20.52,0,0,1,3.4.51c.68.15.68.16.68-.51s0-1.1,0-1.65c0-.32-.09-.46-.41-.52a20.51,20.51,0,0,0-7.16-.22,4.31,4.31,0,0,0-4,4.66v2.38C20.34,12.25,20.33,13.11,20.34,14Zm29,3.52c0,.45.07.64.59.62,1-.05,2-.05,3,0,.5,0,.57-.16.57-.6,0-3.14,0-6.28,0-9.42,0-.43.12-.56.54-.63a31.78,31.78,0,0,1,3.89-.36c.36,0,.44-.13.43-.46,0-.7,0-1.41,0-2.12,0-.31-.07-.42-.41-.41a32.86,32.86,0,0,0-8.17,1.36.51.51,0,0,0-.43.58c0,1.92,0,3.85,0,5.77S49.36,15.61,49.34,17.5Z"/></g></g></svg>