<svg xmlns="http://www.w3.org/2000/svg" viewBox="0 0 25.05 25.05"><defs><style>.cls-1{fill:#fff;}</style></defs><title>icon--close</title><g id="Layer_2" data-name="Layer 2"><g id="Layer_1-2" data-name="Layer 1"><path class="cls-1" d="M12.52,0A12.53,12.53,0,1,0,25.05,12.52,12.54,12.54,0,0,0,12.52,0Zm0,1.67A10.86,10.86,0,1,1,1.67,12.52,10.84,10.84,0,0,1,12.52,1.67ZM7.7,7a.84.84,0,0,0-.5,1.43l4.14,4.14L7.2,16.67a.83.83,0,0,0-.07,1.17.84.84,0,0,0,1.18.08l.07-.08,4.14-4.14,4.15,4.14a.83.83,0,1,0,1.25-1.1l-.07-.07-4.14-4.15,4.14-4.14A.84.84,0,0,0,17.16,7a.78.78,0,0,0-.49.25l-4.15,4.14L8.38,7.2A.82.82,0,0,0,7.7,7Z"/></g></g></svg>