<svg xmlns="http://www.w3.org/2000/svg" viewBox="0 0 25.63 25.63"><defs><style>.cls-1{fill:#fff;}</style></defs><title>icon--print</title><g id="Layer_2" data-name="Layer 2"><g id="Layer_1-2" data-name="Layer 1"><path class="cls-1" d="M25.62,4.46a.75.75,0,0,0-.74-.75H20.05v-3A.74.74,0,0,0,19.31,0h-13a.74.74,0,0,0-.74.74v3H.74A.75.75,0,0,0,0,4.46V19.31a.74.74,0,0,0,.74.74H5.57v4.83a.74.74,0,0,0,.74.74h13a.74.74,0,0,0,.74-.74V20.05h4.83a.74.74,0,0,0,.74-.74Zm-18.57-3H18.57V3.71H7.05ZM18.57,24.14H7.05V14.48H18.57Zm5.57-5.57H20.05V14.48h1.12a.74.74,0,0,0,0-1.48H4.46a.74.74,0,1,0,0,1.48H5.57v4.09H1.48V5.2H24.14Z"/></g></g></svg>